<svg version="1.0" xmlns="http://www.w3.org/2000/svg"
     width="100%" height="100%" viewBox="0 0 340.000000 250.000000" preserveAspectRatio="xMidYMid meet"
     color-interpolation-filters="sRGB" style="margin: auto;">
    <rect x="0" y="0" width="100%" height="100%" fill="#ffffff" fill-opacity="1"
          class="background"/>
    <rect x="0" y="0" width="100%" height="100%" fill="transparent" fill-opacity="1"
          class="watermarklayer"/>
    <g fill="#4a93fa" class="icon-text-wrapper icon-svg-group iconsvg"
       transform="translate(81.01499933004379,72.33547592163086)">
        <g class="iconsvg-imagesvg" transform="translate(58.98500061035156,0)">
            <g>
                <rect fill="#4a93fa" fill-opacity="0" stroke-width="2" x="0" y="0" width="60"
                      height="59.446552595337415" class="image-rect"/>
                <svg x="0" y="0" width="60" height="59.446552595337415"
                     class="image-svg-svg primary" style="overflow: visible;">
                    <svg xmlns="http://www.w3.org/2000/svg"
                         viewBox="0.005373915657401085 0 123.47924041748047 122.33999633789062">
                        <g>
                            <g fill="#4a93fa">
                                <path d="M76 81.93c.14-1.21.26-2.45.37-3.72q-1.59 1.5-3.18 2.94zM29.75 62.73c3-3.68 6.28-7.4 9.81-11.08.21-4.44.56-8.77 1-12.92a96.59 96.59 0 0 0-19.87-2.45c-8.67 0-12.53 2-13.25 3.84-1.51 4.01 6.43 13.13 22.31 22.61zM39.45 68q-.09-2.82-.11-5.69-1.74 2-3.33 3.9c1.12.65 2.26 1.25 3.44 1.79zM14 60.61C7.85 55.75 3.71 51.13 1.68 46.88a61.67 61.67 0 0 0 10 50.38c.26-4.7 2.32-10.55 6.18-17.39a113.13 113.13 0 0 1 7.54-11.5A113.13 113.13 0 0 1 14 60.61zM111.84 25.07c-.26 4.7-2.32 10.55-6.18 17.39A113 113 0 0 1 98.12 54a113.11 113.11 0 0 1 11.35 7.76c6.17 4.86 10.31 9.48 12.34 13.73a61.67 61.67 0 0 0-10-50.38zM81.93 90.63a116.2 116.2 0 0 1-3.45 15.24c-2.29 7.51-5.11 13-8.33 16.47a61.77 61.77 0 0 0 45.62-31.25c-3 1.23-7.18 2.05-13 2.05a102.9 102.9 0 0 1-20.84-2.51zM41.57 31.7A116.24 116.24 0 0 1 45 16.47C47.31 9 50.13 3.43 53.35 0A61.77 61.77 0 0 0 7.73 31.25c3-1.23 7.18-2.05 13-2.05a102.9 102.9 0 0 1 20.84 2.5zM84.05 54.29q.09 2.82.11 5.69 1.72-2 3.33-3.91c-1.12-.59-2.26-1.19-3.44-1.78zM79.44 19.85c8.09-4.44 15.3-6.92 20.8-7A61.44 61.44 0 0 0 70.15 0c3.22 3.43 6 9 8.33 16.47.34 1.09.65 2.22.96 3.38zM83.62 46.19c2.87 1.37 5.66 2.78 8.32 4.22A107.62 107.62 0 0 0 99.49 39c5.9-10.48 6.07-16.22 4.41-18a5.09 5.09 0 0 0-3.54-1c-4.17 0-10.91 2.29-19.26 7.09a161.34 161.34 0 0 1 2.52 19.1zM36.14 96.94a10.27 10.27 0 0 1 5.06-8.84c-.56-3.84-1-7.82-1.32-12-2.87-1.37-5.65-2.78-8.32-4.22-11.06 14.82-14.93 26.28-12 29.39a5.09 5.09 0 0 0 3.55 1.05c3.09 0 7.6-1.26 13.12-3.87a10.25 10.25 0 0 1-.09-1.51zM39.71 104.71c-6.32 3-12 4.7-16.44 4.73a61.44 61.44 0 0 0 30.08 12.89c-3-3.22-5.69-8.33-7.91-15.16a10.23 10.23 0 0 1-5.73-2.46zM66.81 86.66c-3.5 2.91-7 5.58-10.38 8a10.21 10.21 0 0 1-4.13 10.69c3 9 6.51 14 9.45 14C66.16 119.38 72 108.1 75 89q-4-1.05-8.19-2.34zM53.65 82.07q-3.24-1.26-6.37-2.6c.25 2.56.55 5 .89 7.35a10.21 10.21 0 0 1 4.39 1.89c2-1.46 4.14-3 6.3-4.72-1.74-.61-3.47-1.25-5.21-1.92z"/>
                                <circle cx="46.42" cy="96.94" r="5.82"/>
                                <path d="M93.76 59.6c-1.09 1.34-2.23 2.68-3.39 4A10.24 10.24 0 0 1 83.46 78c-.16 1.88-.34 3.74-.56 5.56a96.6 96.6 0 0 0 19.87 2.45c8.67 0 12.53-2 13.25-3.84 1.56-3.96-6.39-13.09-22.26-22.57z"/>
                                <circle cx="81.1" cy="68.05" r="5.82"/>
                                <path d="M77.05 58.6c0-2.65-.1-5.25-.23-7.75q-4.53-2-9.52-4l-1.15-.43A10.23 10.23 0 0 1 52.28 49l-1.11 1q-2.42 2.3-4.66 4.58-.1 3.18-.1 6.53c0 3.57.1 7 .27 10.32q4.53 2 9.52 4 4.54 1.76 9 3.25 3.29-2.85 6.69-6.06a10.25 10.25 0 0 1 5.13-14zM50 33.75a10.22 10.22 0 0 1 12.32-2.58c3.66-2.8 7.26-5.34 10.74-7.55C69.88 10.48 65.35 3 61.75 3c-4.41 0-10.22 11.24-13.26 30.34zM69.86 40.27q3.24 1.26 6.37 2.6c-.41-4.23-1-8.16-1.59-11.79q-3.55 2.36-7.37 5.24a10.2 10.2 0 0 1 .81 3.3z"/>
                                <circle cx="57.84" cy="40.4" r="5.82"/>
                            </g>
                        </g>
                    </svg>
                </svg> <!----></g>
        </g>
        <g transform="translate(0,66.44655227661133)">
            <g  class="tp-name iconsvg-namesvg" transform="translate(0,0)">
                <g transform="scale(1)">
                    <g>
                        <path d="M9.51-13.02L9.51-9.66 6.74-9.66 6.74 0 2.24 0 2.24-9.66 0.52-9.66 0.52-11.86 2.33-12.97 2.33-13.19Q2.33-15.76 3.39-16.89 4.44-18.01 6.76-18.01L6.76-18.01Q7.66-18.01 8.46-17.88 9.25-17.74 10.31-17.39L10.31-17.39 9.35-14.48Q8.52-14.71 7.73-14.71L7.73-14.71Q7.21-14.71 6.97-14.4 6.74-14.08 6.74-13.37L6.74-13.37 6.74-13.02 9.51-13.02ZM22.89 0L19.77 0 18.91-1.72 18.82-1.72Q17.91-0.6 16.97-0.18 16.03 0.23 14.53 0.23L14.53 0.23Q12.69 0.23 11.63-0.87 10.58-1.98 10.58-3.98L10.58-3.98Q10.58-6.06 12.02-7.08 13.47-8.09 16.22-8.22L16.22-8.22 18.39-8.29 18.39-8.47Q18.39-10.08 16.81-10.08L16.81-10.08Q15.38-10.08 13.19-9.12L13.19-9.12 11.89-12.08Q14.16-13.25 17.63-13.25L17.63-13.25Q20.14-13.25 21.51-12.01 22.89-10.77 22.89-8.54L22.89-8.54 22.89 0ZM16.44-2.94L16.44-2.94Q17.26-2.94 17.84-3.46 18.42-3.98 18.42-4.81L18.42-4.81 18.42-5.82 17.38-5.77Q15.16-5.69 15.16-4.14L15.16-4.14Q15.16-2.94 16.44-2.94ZM38.66 0L34.17 0 34.17-7.1Q34.17-8.4 33.79-9.06 33.42-9.73 32.59-9.73L32.59-9.73Q31.45-9.73 30.95-8.82 30.44-7.91 30.44-5.7L30.44-5.7 30.44 0 25.95 0 25.95-13.02 29.34-13.02 29.9-11.42 30.16-11.42Q30.74-12.33 31.76-12.79 32.77-13.25 34.1-13.25L34.1-13.25Q36.26-13.25 37.46-12 38.66-10.75 38.66-8.47L38.66-8.47 38.66 0ZM48.1-3.32L48.1-3.32Q49.01-3.32 50.27-3.77L50.27-3.77 50.27-0.49Q49.36-0.1 48.54 0.06 47.72 0.23 46.62 0.23L46.62 0.23Q44.35 0.23 43.35-0.88 42.35-1.99 42.35-4.29L42.35-4.29 42.35-9.66 40.78-9.66 40.78-11.48 42.78-12.9 43.94-15.63 46.88-15.63 46.88-13.02 50.08-13.02 50.08-9.66 46.88-9.66 46.88-4.59Q46.88-3.32 48.1-3.32ZM64.16 0L61.04 0 60.18-1.72 60.09-1.72Q59.18-0.6 58.24-0.18 57.29 0.23 55.8 0.23L55.8 0.23Q53.96 0.23 52.9-0.87 51.85-1.98 51.85-3.98L51.85-3.98Q51.85-6.06 53.29-7.08 54.74-8.09 57.49-8.22L57.49-8.22 59.66-8.29 59.66-8.47Q59.66-10.08 58.08-10.08L58.08-10.08Q56.65-10.08 54.46-9.12L54.46-9.12 53.16-12.08Q55.43-13.25 58.9-13.25L58.9-13.25Q61.41-13.25 62.78-12.01 64.16-10.77 64.16-8.54L64.16-8.54 64.16 0ZM57.71-2.94L57.71-2.94Q58.52-2.94 59.11-3.46 59.69-3.98 59.69-4.81L59.69-4.81 59.69-5.82 58.65-5.77Q56.43-5.69 56.43-4.14L56.43-4.14Q56.43-2.94 57.71-2.94ZM77.27-4L77.27-4Q77.27-1.91 75.85-0.84 74.42 0.23 71.76 0.23L71.76 0.23Q70.31 0.23 69.24 0.07 68.17-0.08 67.05-0.49L67.05-0.49 67.05-4.09Q68.1-3.63 69.35-3.33 70.6-3.03 71.57-3.03L71.57-3.03Q73.03-3.03 73.03-3.7L73.03-3.7Q73.03-4.05 72.62-4.32 72.22-4.59 70.25-5.37L70.25-5.37Q68.46-6.1 67.74-7.04 67.03-7.98 67.03-9.41L67.03-9.41Q67.03-11.23 68.43-12.24 69.84-13.25 72.4-13.25L72.4-13.25Q73.69-13.25 74.82-12.97 75.95-12.69 77.17-12.15L77.17-12.15 75.95-9.25Q75.06-9.66 74.06-9.94 73.06-10.22 72.42-10.22L72.42-10.22Q71.32-10.22 71.32-9.68L71.32-9.68Q71.32-9.35 71.7-9.11 72.09-8.87 73.93-8.15L73.93-8.15Q75.3-7.59 75.97-7.05 76.64-6.51 76.96-5.78 77.27-5.05 77.27-4ZM83.32-0.18L78.19-13.02 82.93-13.02 85.14-5.55Q85.3-4.97 85.36-4.14L85.36-4.14 85.45-4.14Q85.54-4.93 85.72-5.53L85.72-5.53 87.99-13.02 92.58-13.02 87.42 0.83Q86.44 3.47 84.99 4.56 83.55 5.66 81.23 5.66L81.23 5.66Q80.33 5.66 79.39 5.46L79.39 5.46 79.39 1.93Q80 2.07 80.78 2.07L80.78 2.07Q81.38 2.07 81.83 1.84 82.27 1.61 82.61 1.19 82.94 0.77 83.32-0.18L83.32-0.18ZM99.56-4.52L93.07-4.52 93.07-8.1 99.56-8.1 99.56-4.52ZM105.66 0.23L105.66 0.23Q104.27 0.23 103.23-0.56 102.19-1.36 101.62-2.9 101.05-4.44 101.05-6.5L101.05-6.5Q101.05-9.67 102.32-11.46 103.6-13.25 105.83-13.25L105.83-13.25Q106.92-13.25 107.74-12.82 108.57-12.38 109.24-11.35L109.24-11.35 109.34-11.35Q109.12-12.88 109.12-14.4L109.12-14.4 109.12-17.89 113.65-17.89 113.65 0 110.26 0 109.29-1.64 109.12-1.64Q107.96 0.23 105.66 0.23ZM107.5-3.32L107.5-3.32Q108.58-3.32 109.02-4 109.46-4.68 109.5-6.09L109.5-6.09 109.5-6.45Q109.5-8.17 109-8.9 108.51-9.63 107.45-9.63L107.45-9.63Q106.57-9.63 106.08-8.8 105.59-7.97 105.59-6.43L105.59-6.43Q105.59-4.91 106.08-4.12 106.58-3.32 107.5-3.32ZM123.04 0.23L123.04 0.23Q119.79 0.23 117.99-1.5 116.19-3.23 116.19-6.43L116.19-6.43Q116.19-9.73 117.85-11.49 119.52-13.25 122.61-13.25L122.61-13.25Q125.56-13.25 127.16-11.72 128.76-10.19 128.76-7.3L128.76-7.3 128.76-5.3 120.73-5.3Q120.77-4.21 121.53-3.59 122.28-2.97 123.58-2.97L123.58-2.97Q124.76-2.97 125.76-3.19 126.75-3.41 127.91-3.95L127.91-3.95 127.91-0.72Q126.86-0.18 125.73 0.02 124.6 0.23 123.04 0.23ZM122.77-10.2L122.77-10.2Q121.98-10.2 121.45-9.7 120.91-9.2 120.82-8.13L120.82-8.13 124.68-8.13Q124.66-9.07 124.15-9.63 123.64-10.2 122.77-10.2ZM141.36-4L141.36-4Q141.36-1.91 139.94-0.84 138.51 0.23 135.84 0.23L135.84 0.23Q134.4 0.23 133.33 0.07 132.26-0.08 131.14-0.49L131.14-0.49 131.14-4.09Q132.19-3.63 133.44-3.33 134.68-3.03 135.66-3.03L135.66-3.03Q137.12-3.03 137.12-3.7L137.12-3.7Q137.12-4.05 136.71-4.32 136.3-4.59 134.34-5.37L134.34-5.37Q132.55-6.1 131.83-7.04 131.12-7.98 131.12-9.41L131.12-9.41Q131.12-11.23 132.52-12.24 133.93-13.25 136.49-13.25L136.49-13.25Q137.78-13.25 138.91-12.97 140.04-12.69 141.26-12.15L141.26-12.15 140.04-9.25Q139.14-9.66 138.14-9.94 137.14-10.22 136.51-10.22L136.51-10.22Q135.41-10.22 135.41-9.68L135.41-9.68Q135.41-9.35 135.79-9.11 136.18-8.87 138.02-8.15L138.02-8.15Q139.39-7.59 140.06-7.05 140.73-6.51 141.05-5.78 141.36-5.05 141.36-4ZM148.38-13.02L148.38 0 143.88 0 143.88-13.02 148.38-13.02ZM143.77-16.27L143.77-16.27Q143.77-17.28 144.33-17.77 144.89-18.27 146.15-18.27L146.15-18.27Q147.4-18.27 147.97-17.76 148.55-17.26 148.55-16.27L148.55-16.27Q148.55-14.29 146.15-14.29L146.15-14.29Q143.77-14.29 143.77-16.27ZM159.26-13.02L163.8-13.02 163.8-10.85 162.02-10.2Q162.39-9.53 162.39-8.64L162.39-8.64Q162.39-6.54 160.91-5.38 159.43-4.22 156.5-4.22L156.5-4.22Q155.78-4.22 155.35-4.31L155.35-4.31Q155.19-4.01 155.19-3.75L155.19-3.75Q155.19-3.41 155.73-3.24 156.27-3.06 157.15-3.06L157.15-3.06 159.31-3.06Q163.69-3.06 163.69 0.63L163.69 0.63Q163.69 3.01 161.66 4.33 159.63 5.66 155.96 5.66L155.96 5.66Q153.19 5.66 151.69 4.73 150.19 3.81 150.19 2.07L150.19 2.07Q150.19-0.26 153.09-0.94L153.09-0.94Q152.49-1.2 152.05-1.76 151.61-2.32 151.61-2.87L151.61-2.87Q151.61-3.48 151.94-3.95 152.27-4.41 153.33-5.06L153.33-5.06Q152.32-5.51 151.74-6.46 151.16-7.41 151.16-8.78L151.16-8.78Q151.16-10.91 152.61-12.08 154.05-13.25 156.74-13.25L156.74-13.25Q157.1-13.25 157.97-13.17 158.85-13.09 159.26-13.02L159.26-13.02ZM153.99 1.62L153.99 1.62Q153.99 2.17 154.58 2.51 155.18 2.85 156.18 2.85L156.18 2.85Q157.81 2.85 158.8 2.44 159.78 2.03 159.78 1.39L159.78 1.39Q159.78 0.87 159.18 0.66 158.58 0.45 157.47 0.45L157.47 0.45 155.71 0.45Q154.99 0.45 154.49 0.79 153.99 1.13 153.99 1.62ZM155.4-8.76L155.4-8.76Q155.4-6.76 156.79-6.76L156.79-6.76Q157.43-6.76 157.78-7.25 158.14-7.75 158.14-8.74L158.14-8.74Q158.14-10.76 156.79-10.76L156.79-10.76Q155.4-10.76 155.4-8.76ZM178.49 0L174 0 174-7.1Q174-8.4 173.63-9.06 173.25-9.73 172.42-9.73L172.42-9.73Q171.29-9.73 170.78-8.82 170.27-7.91 170.27-5.7L170.27-5.7 170.27 0 165.78 0 165.78-13.02 169.17-13.02 169.73-11.42 170-11.42Q170.57-12.33 171.59-12.79 172.61-13.25 173.93-13.25L173.93-13.25Q176.09-13.25 177.29-12 178.49-10.75 178.49-8.47L178.49-8.47 178.49 0Z"
                              transform="translate(-0.5199999809265137, 18.270000457763672)"/>
                    </g> <!----> <!----> <!----> <!----> <!----> <!----> <!----></g>
            </g>
            <g  class="tp-slogan iconsvg-slogansvg" fill="#1378c0"
               transform="translate(5,29.93000030517578)">
                <rect x="0" height="1" y="3.9750003814697266" width="54.170000076293945"/>
                <rect height="1" y="3.9750003814697266" width="54.170000076293945" x="113.80000114440918"/>
                <g transform="translate(57.170000076293945,0)">
                    <g transform="scale(1)">
                        <path d="M5.02-3.70L2.20-3.70L2.20 0L1.03 0L1.03-8.58L5.02-8.58Q7.88-8.58 7.88-6.28L7.88-6.28Q7.88-4.88 6.66-4.22L6.66-4.22Q7.69-3.94 7.69-2.58L7.69-2.58L7.78-1.03Q7.73-0.38 8.20-0.19L8.20-0.19L8.20 0L6.75 0Q6.61-0.61 6.56-2.16L6.56-2.16Q6.61-3.70 5.02-3.70L5.02-3.70ZM5.11-7.64L2.20-7.64L2.20-4.69L4.92-4.69Q6.66-4.69 6.66-6.19L6.66-6.19Q6.66-7.64 5.11-7.64L5.11-7.64ZM10.83-1.03L15.98-1.03L15.98 0L9.66 0L9.66-8.58L15.89-8.58L15.89-7.59L10.83-7.59L10.83-4.92L15.52-4.92L15.52-3.89L10.83-3.89L10.83-1.03ZM23.16 0L22.31-2.48L18.84-2.48L17.95 0L16.78 0L20.02-8.58L21.33-8.58L24.42 0L23.16 0ZM20.58-7.31L19.22-3.52L21.89-3.52L20.63-7.31L20.58-7.31ZM32.63-6.05L32.63-6.05L31.50-6.05Q31.08-7.78 29.11-7.83L29.11-7.83Q26.39-7.69 26.30-4.36L26.30-4.36Q26.30-0.80 29.16-0.80L29.16-0.80Q31.13-0.84 31.59-3.19L31.59-3.19L32.72-3.19Q32.20 0.05 28.92 0.14L28.92 0.14Q25.17 0 25.08-4.31L25.08-4.31Q25.27-8.63 29.11-8.81L29.11-8.81Q32.16-8.72 32.63-6.05ZM36.28-7.59L33.38-7.59L33.38-8.58L40.31-8.58L40.31-7.59L37.41-7.59L37.41 0L36.28 0L36.28-7.59ZM50.34-3.19L50.34-8.58L51.52-8.58L51.52-3.05Q51.38 0.05 48 0.14L48 0.14Q44.86 0.05 44.72-2.86L44.72-2.86L44.72-8.58L45.89-8.58L45.89-3.19Q45.94-0.84 48.05-0.80L48.05-0.80Q50.34-0.84 50.34-3.19L50.34-3.19ZM53.48-8.58L54.66-8.58L54.66 0L53.48 0L53.48-8.58Z"
                              transform="translate(-1.03125, 8.8125)"/>
                    </g>
                </g>
            </g>
        </g>
    </g>
    <defs></defs>
</svg>
